<svg xmlns="http://www.w3.org/2000/svg" width="512" height="512" viewBox="0 0 512 512" role="img" aria-label="Beanola app icon">
  <defs>
    <linearGradient id="beanola-gradient-512" x1="0" y1="0" x2="1" y2="1">
      <stop offset="0%" stop-color="#2563eb" />
      <stop offset="58%" stop-color="#0f766e" />
      <stop offset="100%" stop-color="#111827" />
    </linearGradient>
  </defs>
  <rect width="512" height="512" rx="122" fill="#f8fafc" />
  <rect x="42" y="42" width="428" height="428" rx="94" fill="url(#beanola-gradient-512)" />
  <path d="M174 147h101c48 0 78 23 78 61 0 25-14 43-37 54 30 10 48 32 48 63 0 44-34 70-88 70H174V147Z" fill="#ffffff" />
  <path d="M224 193v50h45c21 0 34-10 34-26s-13-24-34-24H224Zm0 92v64h53c25 0 39-13 39-32 0-20-14-32-41-32H224Z" fill="#2563eb" opacity="0.9" />
  <circle cx="351" cy="160" r="30" fill="#f59e0b" />
</svg>
