<svg xmlns="http://www.w3.org/2000/svg" width="512" height="512" viewBox="0 0 512 512" role="img" aria-label="Beanola maskable icon">
  <defs>
    <linearGradient id="beanola-maskable-gradient-512" x1="0" y1="0" x2="1" y2="1">
      <stop offset="0%" stop-color="#2563eb" />
      <stop offset="58%" stop-color="#0f766e" />
      <stop offset="100%" stop-color="#111827" />
    </linearGradient>
  </defs>
  <rect width="512" height="512" fill="#f8fafc" />
  <rect x="77" y="77" width="358" height="358" rx="78" fill="url(#beanola-maskable-gradient-512)" />
  <path d="M184 162h83c40 0 64 19 64 50 0 22-12 37-32 46 25 8 40 27 40 53 0 36-28 58-73 58h-82V162Z" fill="#ffffff" />
  <path d="M224 199v45h38c18 0 29-9 29-23 0-15-11-22-30-22H224Zm0 83v51h44c21 0 33-10 33-26 0-17-12-25-34-25H224Z" fill="#2563eb" opacity="0.9" />
  <circle cx="334" cy="173" r="24" fill="#f59e0b" />
</svg>
