<svg xmlns="http://www.w3.org/2000/svg" width="192" height="192" viewBox="0 0 192 192" role="img" aria-label="Beanola app icon">
  <defs>
    <linearGradient id="beanola-gradient-192" x1="0" y1="0" x2="1" y2="1">
      <stop offset="0%" stop-color="#2563eb" />
      <stop offset="58%" stop-color="#0f766e" />
      <stop offset="100%" stop-color="#111827" />
    </linearGradient>
  </defs>
  <rect width="192" height="192" rx="44" fill="#f8fafc" />
  <rect x="16" y="16" width="160" height="160" rx="34" fill="url(#beanola-gradient-192)" />
  <path d="M65 55h38c18 0 29 9 29 23 0 9-5 16-14 20 11 4 18 12 18 24 0 16-13 26-33 26H65V55Z" fill="#ffffff" />
  <path d="M83 72v19h17c8 0 13-4 13-10s-5-9-13-9H83Zm0 35v24h20c9 0 14-5 14-12 0-8-5-12-15-12H83Z" fill="#2563eb" opacity="0.9" />
  <circle cx="132" cy="61" r="11" fill="#f59e0b" />
</svg>
