<svg xmlns="http://www.w3.org/2000/svg" width="192" height="192" viewBox="0 0 192 192" role="img" aria-label="Beanola maskable icon">
  <defs>
    <linearGradient id="beanola-maskable-gradient-192" x1="0" y1="0" x2="1" y2="1">
      <stop offset="0%" stop-color="#2563eb" />
      <stop offset="58%" stop-color="#0f766e" />
      <stop offset="100%" stop-color="#111827" />
    </linearGradient>
  </defs>
  <rect width="192" height="192" fill="#f8fafc" />
  <rect x="29" y="29" width="134" height="134" rx="30" fill="url(#beanola-maskable-gradient-192)" />
  <path d="M69 61h31c15 0 24 7 24 19 0 8-4 14-12 17 10 3 15 10 15 20 0 13-10 22-27 22H69V61Z" fill="#ffffff" />
  <path d="M84 75v17h14c7 0 11-3 11-9 0-5-4-8-11-8H84Zm0 31v19h16c8 0 12-4 12-10s-4-9-12-9H84Z" fill="#2563eb" opacity="0.9" />
  <circle cx="125" cy="66" r="9" fill="#f59e0b" />
</svg>
